<svg width="248" height="75" viewBox="0 0 248 75" fill="none" xmlns="http://www.w3.org/2000/svg">
<g id="Michelin_Logo_1997 1" clip-path="url(#clip0_297_4435)">
<g id="g3">
<path id="polygon5" fill-rule="evenodd" clip-rule="evenodd" d="M4.73145 64.5059H248V23.582H4.73145V64.5059Z" fill="#0061A9"/>
<path id="polygon7" fill-rule="evenodd" clip-rule="evenodd" d="M202.757 56.4961H4.73145V58.9607H201.892L202.757 56.4961Z" fill="#FFE822"/>
<path id="path9" fill-rule="evenodd" clip-rule="evenodd" d="M78.0337 33.0756L71.4827 42.9355C71.4827 42.9355 71.977 37.7584 71.977 36.5261C72.1006 35.5402 71.977 33.0742 69.6276 33.0742C67.4033 33.0742 59.3679 33.0742 59.3679 33.0742L52.6934 51.3166H60.7287L65.5496 38.1267L64.561 51.3166H71.7299L80.5067 38.3731L75.6857 51.3166H83.7196L90.5192 33.0742L78.0337 33.0756Z" fill="white"/>
<path id="path11" fill-rule="evenodd" clip-rule="evenodd" d="M121.791 50.9498C121.297 51.073 118.329 51.6878 114.993 51.6878C109.307 51.9357 104.239 49.5929 104.239 45.5248C104.115 38.2514 111.408 34.308 116.847 33.3208C119.194 32.8278 123.892 32.2117 128.466 33.3208L125.745 39.7302C125.005 38.0049 123.027 38.0049 122.162 38.0049C120.307 37.8817 118.577 38.4993 117.464 38.9908C114.744 40.2231 112.396 44.1665 116.229 45.7699C118.329 46.6325 121.05 45.8931 123.893 45.5234L121.791 50.9498Z" fill="white"/>
<path id="polygon13" fill-rule="evenodd" clip-rule="evenodd" d="M204.117 51.3205H195.339L202.015 33.0781H210.915L204.117 51.3205Z" fill="white"/>
<path id="polygon15" fill-rule="evenodd" clip-rule="evenodd" d="M97.6865 51.3205H88.9111L95.5857 33.0781H104.486L97.6865 51.3205Z" fill="white"/>
<path id="polygon17" fill-rule="evenodd" clip-rule="evenodd" d="M141.075 33.0781H132.669L125.871 51.3205H134.276L136.625 45.1561H141.075L138.851 51.3205H147.256L154.054 33.0781H145.525L143.178 39.6108H138.602L141.075 33.0781Z" fill="white"/>
<path id="polygon19" fill-rule="evenodd" clip-rule="evenodd" d="M186.193 45.2794L190.643 33.0781H181.99L175.315 51.3205H192.62L194.846 45.2794H186.193Z" fill="white"/>
<path id="path21" fill-rule="evenodd" clip-rule="evenodd" d="M232.796 33.0756L228.097 45.648C228.221 44.4157 228.469 39.3618 228.593 36.5261C228.716 35.2938 228.469 34.4312 227.851 33.8136C227.11 33.0742 226.245 33.0742 226.245 33.0742H215.984L209.186 51.3166H216.727L221.424 38.3731L220.93 51.3166H233.414L240.213 33.0742L232.796 33.0756Z" fill="white"/>
<path id="polygon23" fill-rule="evenodd" clip-rule="evenodd" d="M174.449 39.8572H164.807L165.55 37.8855H175.686L177.416 33.0781H158.999L152.199 51.3205H170.989L172.72 46.3899H162.459L163.2 44.4182H172.844L174.449 39.8572Z" fill="white"/>
<path id="path25" fill-rule="evenodd" clip-rule="evenodd" d="M53.4348 41.4579C53.9291 40.5953 53.3112 38.9933 52.1976 37.7595C51.209 36.5272 49.8497 36.1575 49.7261 35.5414C51.0854 32.8289 49.6025 30.4875 47.5017 29.5017C47.6253 28.268 47.131 26.9124 46.0188 26.0498C46.5131 24.9407 47.131 21.86 44.783 20.0101C45.7716 16.1885 41.8172 13.9704 39.715 13.8471C38.7249 13.1063 37.3656 12.6134 35.5105 12.4902C36.8713 10.5171 36.4991 7.92925 34.8912 6.45048C35.0148 4.35556 33.5319 2.38246 31.4296 1.64307C30.6882 -0.0821538 26.7323 0.164307 26.3616 1.7663C24.0136 2.62892 22.6528 5.09495 22.9 7.43633C21.5392 8.91509 21.5392 11.3811 22.9 13.1063C21.6628 12.9831 19.9327 13.3528 18.8205 13.8457H18.697C17.7083 13.3528 16.7183 13.1063 15.6061 13.3528C15.359 13.1063 14.6175 12.8599 14.1232 12.7367C13.7553 12.1205 13.2596 11.6276 12.5181 11.2579C12.271 10.1488 11.4059 9.2862 10.5409 8.91509C10.6645 8.05248 10.2937 7.06663 10.0466 6.57371C9.55228 5.83433 9.67586 4.60202 9.79944 4.35556C10.4173 3.73941 9.92301 3.12326 9.67586 2.87538C8.43867 1.64307 7.20291 2.25923 6.83218 2.87538C5.59641 0.65723 4.23706 0.164307 3.49418 0.410769C2.38199 -0.451845 0.775494 0.164307 0.775494 1.15015C0.0340337 1.64307 -0.460273 1.88953 0.651917 3.86264C0.404764 7.92925 0.899071 9.16297 3.61918 11.3811C2.75272 12.2437 2.38199 13.969 3.12345 15.3259C2.8763 17.299 3.98849 19.2707 5.34925 20.2565C5.71998 23.0909 8.43867 24.6943 10.2937 25.064C11.5295 26.9124 13.2596 27.775 14.9911 27.8983C15.1147 28.7609 15.3618 29.5003 15.8561 30.2396C15.4854 31.8416 15.4854 33.3218 15.9797 34.6774C14.7439 36.0329 14.2496 38.1292 14.8675 40.2241C13.3846 41.9494 12.8889 44.7851 13.8789 47.1265C13.8789 47.1265 13.5082 47.744 13.261 48.3588C12.2724 48.8531 11.2838 49.9622 10.7895 51.441C10.2952 52.55 10.5423 54.0288 10.7895 55.2625C9.18297 56.6181 8.19294 60.0699 11.0366 62.781C10.4187 64.7555 9.0594 66.4793 7.4529 68.5757C6.34071 70.0544 6.09214 70.7938 7.4529 72.5205C8.44151 73.876 10.2952 74.9851 11.9031 74.9851C14.8689 75.1083 16.9711 74.4907 17.2183 72.2726C17.4655 71.0403 16.6004 68.4524 16.6004 67.8349C16.4768 67.2187 16.724 66.2329 17.3419 64.6295C20.062 64.0133 21.4213 62.0416 21.6671 60.0685C23.6457 58.9594 25.1286 56.6166 24.3872 54.0274C24.7579 53.6577 24.8815 53.2894 25.1286 52.6719C25.1286 53.7809 25.8701 54.5217 26.2408 55.2611C25.1286 58.0954 26.6116 60.6847 28.3416 61.7937C25.3744 66.1082 28.5888 68.2031 29.4538 69.0658C30.566 70.0516 30.6896 71.9015 32.4197 72.5191C33.9026 73.012 38.6013 72.5191 39.465 70.5459C39.7121 70.0516 39.9593 69.4369 39.7121 69.0658C39.7121 67.587 38.8471 66.6012 37.2392 65.6139C35.3841 64.628 35.3841 64.8759 34.5191 62.162C37.3627 60.8065 37.857 57.6011 37.7335 56.3688C39.7121 53.9027 39.5885 51.8064 38.4749 50.4509C38.8457 49.3418 38.7221 48.4778 38.4749 47.6166C40.205 46.1364 40.9465 43.9182 40.3286 41.5754C41.3172 40.0967 41.5643 38.4947 41.1936 36.6448C42.0587 38.0018 43.418 38.4947 44.9023 38.4947C44.9023 38.4947 45.0259 38.8629 45.1495 39.1108C44.6552 39.972 44.9023 40.9607 46.0145 41.6987C46.1381 42.193 46.3853 42.438 46.6324 42.6845C46.6324 43.0542 47.621 44.6576 48.7332 43.7936C48.8568 43.7936 50.094 42.931 50.094 42.931C51.209 43.7993 53.6805 43.0599 53.4348 41.4579Z" fill="#040506"/>
<path id="path27" fill-rule="evenodd" clip-rule="evenodd" d="M41.938 33.3235C45.0274 33.077 47.9947 29.6251 45.1524 26.9141C44.7817 27.5302 43.9153 28.1464 43.2974 28.3928C43.1738 29.7484 42.3088 30.8574 41.8145 31.475C41.8145 31.9679 41.938 33.2002 41.938 33.3235Z" fill="white"/>
<path id="path29" fill-rule="evenodd" clip-rule="evenodd" d="M47.0059 30.7344C46.2644 32.7075 44.2858 33.8166 41.9378 34.1862C41.5671 35.7882 43.6679 38.2543 46.8823 36.7755C49.2317 35.7882 50.0967 32.0899 47.0059 30.7344Z" fill="white"/>
<path id="path31" fill-rule="evenodd" clip-rule="evenodd" d="M46.141 39.4861C45.8938 39.7325 45.8938 40.3487 46.2646 40.7198C46.2646 40.5951 46.5117 39.8572 46.6353 39.6107C46.5117 39.3643 46.2646 39.3642 46.141 39.4861Z" fill="white"/>
<path id="path33" fill-rule="evenodd" clip-rule="evenodd" d="M48.118 40.9656C47.9945 40.5945 48.118 40.103 47.5002 39.9784C46.8823 39.7319 46.8823 41.705 47.253 41.5818C47.5002 41.3353 47.7473 41.0874 48.118 40.9656Z" fill="white"/>
<path id="path35" fill-rule="evenodd" clip-rule="evenodd" d="M48.9846 41.2109C48.1196 41.4574 47.5017 42.0736 47.8725 42.5665C47.996 42.8129 48.1196 42.8129 48.6139 42.4432C48.8611 42.32 49.3554 41.9489 49.479 41.8257C49.3554 41.4574 48.9846 41.2109 48.9846 41.2109Z" fill="white"/>
<path id="path37" fill-rule="evenodd" clip-rule="evenodd" d="M49.7258 37.39C49.4786 37.2667 48.9843 36.897 48.7372 36.5273C48.1193 37.1435 46.7599 37.8843 46.1406 38.0061C46.2642 38.0061 46.3878 38.6223 46.5114 38.8673C46.7585 38.8673 47.0057 39.1152 47.2528 39.3616C47.5 39.2384 48.365 39.3616 48.6136 40.2243C48.9843 40.4707 49.7258 40.8404 49.9729 41.0855C50.9615 42.3192 51.7044 42.1959 51.9516 41.9481C52.8166 41.3319 51.5808 40.7172 50.963 39.8532C50.5922 39.482 49.6036 38.1265 49.6036 37.7568C49.6036 37.6336 49.8508 37.7568 50.0979 38.0033C50.0979 38.1265 51.4573 39.7285 52.1987 40.3447C51.5794 38.2526 49.7258 37.39 49.7258 37.39Z" fill="white"/>
<path id="path39" fill-rule="evenodd" clip-rule="evenodd" d="M30.1949 34.5545C41.939 34.4312 43.4219 27.5289 41.8154 24.8164C38.2302 28.5147 26.2405 30.6097 20.3059 25.9255C19.1937 27.1578 17.7094 27.5275 16.4736 27.7739C16.8444 31.2258 23.1482 34.6777 30.1949 34.5545Z" fill="white"/>
<path id="path41" fill-rule="evenodd" clip-rule="evenodd" d="M22.2831 19.8854C22.5302 22.2268 21.5416 24.3231 21.0459 25.0625C22.1581 25.9251 24.3839 27.5271 29.452 27.6503C37.1166 27.7736 45.274 24.0767 40.7003 17.7891C38.7245 20.3783 28.9591 22.5965 22.2831 19.8854Z" fill="white"/>
<path id="path43" fill-rule="evenodd" clip-rule="evenodd" d="M12.1476 19.1491C14.0012 17.4239 14.1262 15.2043 13.2597 13.6023C13.014 13.3544 12.7654 12.9862 12.3961 12.7383C12.0254 15.9437 7.45164 18.4083 4.48438 16.3134C5.59657 20.8743 10.1703 20.9976 12.1476 19.1491Z" fill="white"/>
<path id="path45" fill-rule="evenodd" clip-rule="evenodd" d="M15.856 22.2302C18.5761 19.1494 15.856 14.4652 14.6202 14.2188C15.4852 18.7797 10.9115 22.3548 6.83203 20.6282C7.82065 23.4625 12.6416 25.8053 15.856 22.2302Z" fill="white"/>
<path id="path47" fill-rule="evenodd" clip-rule="evenodd" d="M12.1475 25.0651C14.4954 27.5297 20.8007 27.4065 21.1714 21.6133C21.4186 17.6685 19.6885 15.4503 16.9684 14.7109C20.1828 20.7506 16.3505 24.9405 12.1475 25.0651Z" fill="white"/>
<path id="path49" fill-rule="evenodd" clip-rule="evenodd" d="M17.0922 31.2266C15.98 37.8838 24.879 39.9773 30.1956 39.8555C39.2196 39.4844 41.1968 35.1714 40.7025 32.5821C35.0165 37.0198 22.9032 36.5269 17.0922 31.2266Z" fill="white"/>
<path id="path51" fill-rule="evenodd" clip-rule="evenodd" d="M21.6652 45.2792C26.4861 46.2651 30.3184 44.0469 30.3184 40.8415C27.9705 40.8415 20.4295 40.7197 16.8457 35.7891C14.3728 39.2409 17.34 44.0469 21.6652 45.2792Z" fill="white"/>
<path id="path53" fill-rule="evenodd" clip-rule="evenodd" d="M28.217 45.4018C23.8904 47.62 17.9573 46.018 15.7329 41.457C12.5185 46.5109 17.8337 51.0718 21.7896 50.8254C26.6105 50.5775 27.9698 47.4967 28.217 45.4018Z" fill="white"/>
<path id="path55" fill-rule="evenodd" clip-rule="evenodd" d="M14.8679 48.1133C13.385 50.8258 15.2386 53.7833 17.2159 54.5227C21.4189 56.1247 24.2612 53.4136 24.0154 51.4405C20.6774 52.1813 17.2159 51.1955 14.8679 48.1133Z" fill="white"/>
<path id="path57" fill-rule="evenodd" clip-rule="evenodd" d="M11.5292 56.3711C9.55055 57.9731 10.9113 62.2876 13.8772 63.2734C18.0802 64.7536 19.9338 61.9179 20.181 60.4377C19.0702 60.6856 14.2493 61.6714 11.5292 56.3711Z" fill="white"/>
<path id="path59" fill-rule="evenodd" clip-rule="evenodd" d="M16.9684 55.263C14.744 54.154 13.3832 52.4273 13.2597 50.0859C10.0452 53.2913 12.7654 58.3438 15.7326 59.3296C21.6657 61.4246 23.7665 56.3721 23.2722 54.8919C20.9243 56.4953 18.0806 55.8792 16.9684 55.263Z" fill="white"/>
<path id="path61" fill-rule="evenodd" clip-rule="evenodd" d="M38.2308 69.9322L38.478 70.0554C37.9837 71.0413 34.3985 71.9053 32.9142 71.2877C31.1841 70.4265 31.5534 69.4393 30.4412 68.4534C27.9697 66.112 28.3404 65.1248 28.7111 63.8925C28.8347 63.2749 29.0819 62.9066 29.5762 62.2891C31.3063 62.9066 32.0477 62.782 33.5321 62.4123C33.5321 62.5355 33.5321 62.9066 33.6556 63.0299C32.5434 63.1531 31.5548 63.3995 31.5548 63.3995L31.9256 64.2622C31.9256 64.2622 32.7906 64.0157 33.9042 63.8925C33.9042 63.8925 34.0278 64.5086 34.1514 64.7551C33.1627 64.7551 32.2977 65.1248 32.2977 65.1248L32.5449 65.8642C32.5449 65.8642 33.9056 65.4931 34.8928 65.6163C35.8814 66.4789 39.8373 67.4662 37.8601 69.5611C37.1186 70.3005 35.2636 70.5469 33.7806 70.5469V70.7934C34.0278 71.1645 36.7465 71.2877 38.2308 69.9322Z" fill="white"/>
<path id="path63" fill-rule="evenodd" clip-rule="evenodd" d="M36.3752 57.2344C35.3866 57.9738 33.9037 58.5914 32.1736 58.4681C30.0728 58.4681 28.5885 57.6055 27.3527 56.25C26.6112 59.9469 28.9592 61.6721 31.5543 61.7968C36.2516 62.0418 36.3752 57.7273 36.3752 57.2344Z" fill="white"/>
<path id="path65" fill-rule="evenodd" clip-rule="evenodd" d="M32.049 57.6058C37.1171 57.7291 38.6014 53.5378 37.6128 51.6879C34.7691 55.1398 28.2181 54.4004 26.8588 50.0859C25.1273 53.1695 27.9695 57.6058 32.049 57.6058Z" fill="white"/>
<path id="path67" fill-rule="evenodd" clip-rule="evenodd" d="M32.7903 53.0453C35.2618 53.0453 37.9819 51.3187 37.364 48.2365C34.5204 50.0864 30.9352 49.9632 28.4637 48.1133C28.2165 48.483 27.8458 49.0991 27.5986 49.3456C27.9694 51.6884 30.3187 53.0453 32.7903 53.0453Z" fill="white"/>
<path id="path69" fill-rule="evenodd" clip-rule="evenodd" d="M29.701 44.417C29.5774 44.5402 29.4538 44.6635 29.3302 44.6635C29.3302 45.5261 29.0831 46.6366 28.8359 47.3745C32.2975 50.3335 39.5914 48.4836 39.0971 42.4453C36.6227 44.9099 32.6668 45.5261 29.701 44.417Z" fill="white"/>
<path id="path71" fill-rule="evenodd" clip-rule="evenodd" d="M31.308 40.8389C31.308 41.948 30.9372 42.9339 30.3193 43.7979C34.7695 45.1534 40.3319 42.812 40.0847 37.5117C38.6018 38.8673 35.8817 40.5939 31.308 40.8389Z" fill="white"/>
<path id="path73" fill-rule="evenodd" clip-rule="evenodd" d="M8.93413 15.8182C12.2721 14.3394 12.025 10.8875 10.0463 10.0249C9.55201 10.5178 9.67559 11.6269 9.67559 11.8734C9.67559 12.3663 8.81055 12.736 8.68698 12.4895C8.4384 12.1198 9.18128 11.7501 8.81055 10.8875C8.5634 10.1482 9.42844 9.77846 9.42844 8.54615C9.42844 7.80677 8.81055 6.69628 8.81055 6.45124C8.4384 5.71044 8.4384 4.3549 8.93413 3.73875C8.5634 3.36906 8.06909 2.99936 7.69836 3.73875C7.08048 4.60136 7.32763 5.71044 7.69836 6.57305C7.69836 6.69628 7.08048 6.57305 6.83333 7.55889L6.58475 7.92859H6.3376C6.21402 7.1892 6.46117 6.81951 6.70833 6.32659C6.58475 6.20336 6.3376 5.58721 6.3376 4.47813C5.84329 2.99795 4.7311 1.64241 3.98964 1.51918C4.60752 2.50503 5.72113 4.59995 5.84471 4.84782C6.09044 5.46397 5.59614 5.58721 5.59614 5.58721C4.7311 3.86198 3.86606 2.25856 3.12318 1.51918C2.62888 1.14949 2.13457 0.903029 1.88741 1.27272C2.13457 1.27272 2.38172 1.51918 2.62888 1.76564C3.37034 2.75149 4.97825 5.9569 4.97825 5.9569C4.97825 5.9569 4.85468 6.08013 4.60752 6.08013C4.36037 6.08013 4.11322 5.58721 3.74249 4.72459C3.24676 3.98379 2.5053 2.75149 2.13457 2.3818C1.76384 1.88887 1.51668 2.0121 1.26953 2.25856C1.51668 2.62826 1.76384 3.12118 1.76384 3.49087C2.38172 3.24441 3.12318 3.86056 3.24676 4.47671C3.24676 4.96964 3.49391 6.57163 3.86606 7.06597C3.74249 7.06597 3.37176 7.31243 3.37176 7.31243C2.99961 6.94274 2.75245 5.21751 2.62888 4.60136C2.62888 4.3549 2.5053 4.10844 2.13457 3.98521C1.88741 3.98521 1.88741 4.10844 1.88741 4.23167C1.64026 7.68354 1.88741 8.54615 4.97825 10.8875C5.22541 11.0108 5.47256 11.5037 5.71971 11.9966C5.96687 12.3663 6.3376 12.9825 7.07906 12.8592L7.32621 13.1057C6.70833 13.7218 5.71971 13.3521 5.47256 13.1057C5.34898 12.8592 4.85468 12.1198 4.85468 12.1198C2.62888 14.3394 5.59614 17.4202 8.93413 15.8182Z" fill="white"/>
<path id="path75" fill-rule="evenodd" clip-rule="evenodd" d="M12.3957 63.5234C11.1585 66.2359 9.92272 67.4682 8.56338 69.4413C7.57477 70.6736 7.9455 71.2898 8.56338 72.1524C9.79915 73.5079 11.9014 74.2473 13.5079 73.7558V73.6326C11.5292 73.7558 9.92273 73.015 9.05769 71.7827L9.18126 71.6595C11.4056 73.3847 14.3729 72.8918 15.4851 72.2756C15.8558 72.1524 15.9794 71.7827 15.9794 71.4144C15.8558 70.4286 15.3615 68.8252 15.2379 67.9612C15.1144 67.345 15.3615 65.9895 15.9794 64.5093C14.9908 64.6325 13.0136 64.3875 12.3957 63.5234Z" fill="white"/>
<path id="path77" fill-rule="evenodd" clip-rule="evenodd" d="M41.1968 16.6833C42.8033 17.7924 43.0519 20.0119 43.0519 20.8745C44.6584 17.7924 42.3104 15.9439 41.0732 15.5742C41.3204 16.0671 41.3204 16.5601 41.1968 16.6833Z" fill="white"/>
<path id="path79" fill-rule="evenodd" clip-rule="evenodd" d="M43.5462 26.7911C46.6356 25.0659 44.6584 21.3676 44.1641 21.1211C44.0405 21.4908 43.6698 22.478 42.5576 23.7104C43.1755 24.4483 43.5462 25.5574 43.5462 26.7911Z" fill="white"/>
<path id="path81" fill-rule="evenodd" clip-rule="evenodd" d="M22.0368 18.7754C24.2612 19.7613 26.6106 20.1324 28.9599 20.1324C35.3873 20.1324 39.8375 18.2825 40.2083 16.434C40.4554 14.832 37.4881 13.8448 34.3987 13.5997C33.9044 14.0927 33.2865 14.3391 33.038 14.3391C32.9144 14.3391 32.6672 14.2159 32.9144 14.0926C33.4087 13.8462 33.903 13.3533 33.4087 12.4907C33.7794 12.4907 34.8916 11.9977 35.0152 10.0246C35.0152 8.42263 34.2737 7.43678 33.5323 6.94386C33.5323 6.94386 33.2851 6.6974 33.5323 6.6974C33.7794 4.72571 32.4201 3.12372 30.0707 2.62938V2.3815C30.1943 2.3815 30.1943 2.25827 30.1943 2.25827C30.0707 1.76535 28.3406 1.51889 27.5977 2.13504C27.4742 2.25827 27.9685 2.50473 28.0921 2.50473C28.3392 2.50473 28.4628 2.75119 28.2156 2.75119C26.7327 2.62796 24.2598 3.86027 24.2598 7.18891C24.3833 7.18891 25.1248 7.06568 25.3719 7.06568C25.6191 7.18891 25.4955 7.43537 25.3719 7.43537C23.024 7.5586 22.1575 11.6252 25.2484 12.9822C25.2484 12.9822 25.4955 13.1054 25.2484 13.2286C24.8776 13.4751 24.6305 13.968 25.1248 14.3377C25.3719 14.3377 25.4955 14.5842 25.3719 14.7074C25.3719 14.9538 25.0012 14.9538 24.7541 14.7074C23.1476 13.968 21.2925 14.3377 19.8096 14.8306C20.9246 15.6946 21.6661 17.1734 22.0368 18.7754Z" fill="white"/>
<path id="path83" fill-rule="evenodd" clip-rule="evenodd" d="M5.96738 8.42121C5.8438 8.54585 5.47307 8.17475 5.10234 7.92829C4.73161 7.80506 4.2373 7.80505 4.2373 7.68182C4.2373 7.68182 4.60804 7.55859 4.97877 7.55859C5.22592 7.55859 5.47307 7.68182 5.72023 7.68182C5.8438 7.92829 6.09096 8.29798 5.96738 8.42121Z" fill="#040506"/>
<path id="path85" fill-rule="evenodd" clip-rule="evenodd" d="M14.1263 67.9589C13.3848 67.7124 12.2712 67.5892 11.6533 67.5892V66.7266C12.3948 66.8498 13.5084 66.973 14.3734 67.2209L14.1263 67.9589Z" fill="#040506"/>
<path id="path87" fill-rule="evenodd" clip-rule="evenodd" d="M14.62 66.3573C13.5078 65.9876 13.2592 65.9876 12.0234 65.8644V65.125C13.3828 65.125 13.7535 65.125 14.8657 65.4947L14.62 66.3573Z" fill="#040506"/>
<path id="path89" fill-rule="evenodd" clip-rule="evenodd" d="M32.1726 10.1506C32.049 10.1506 31.9254 10.1506 31.8018 10.2738C29.5774 9.90411 28.9596 10.397 27.7224 10.397C27.7224 10.2738 27.7224 10.0273 27.4752 10.0273C27.4752 10.1506 27.3516 10.2738 27.3516 10.2738C26.9809 10.7667 26.8573 11.0132 26.9809 11.1364C27.1045 11.2596 27.3516 11.0132 27.4752 10.89C27.5988 10.89 28.0931 10.89 28.5874 11.1364C28.9581 11.3829 29.6996 12.3687 30.4411 11.999C31.0589 11.7526 31.5533 10.7667 31.924 10.7667C32.1711 10.7667 32.4183 10.89 32.4183 10.7667C32.5433 10.7667 32.2961 10.0273 32.1726 10.1506ZM30.4425 11.6293C29.701 11.8758 29.3289 11.0132 28.711 10.7667C29.3289 10.6435 30.4411 10.5203 31.4311 10.6435C31.1839 10.7667 30.5661 11.5061 30.4425 11.6293Z" fill="#040506"/>
<path id="path91" fill-rule="evenodd" clip-rule="evenodd" d="M31.3071 4.48047C30.5656 4.6037 30.0713 5.58954 30.0713 6.82185C30.1949 7.56123 30.442 8.30062 30.9363 8.67172C31.1835 8.79495 31.4306 8.91818 31.6778 8.91818C32.4192 8.79495 33.0371 7.80911 32.9136 6.5768C32.9136 5.83742 32.5428 5.09804 32.1721 4.85158C31.9249 4.6037 31.6778 4.48047 31.3071 4.48047Z" fill="#040506"/>
<path id="path93" fill-rule="evenodd" clip-rule="evenodd" d="M32.2957 7.93019C32.4193 7.68373 32.5429 7.19081 32.5429 6.57465C32.4193 5.9585 32.2957 5.46558 31.925 5.09589C31.8014 4.97266 31.5543 4.97266 31.4307 4.97266C30.8128 4.97266 30.4421 5.83527 30.5657 6.82111C30.5657 6.94434 30.5657 6.94434 30.5657 7.06757C30.6892 6.45142 30.9364 5.9585 31.4307 5.83527C31.925 5.83527 32.2957 6.45142 32.2957 7.19081C32.2957 7.43727 32.2957 7.68373 32.2957 7.93019Z" fill="white"/>
<path id="path95" fill-rule="evenodd" clip-rule="evenodd" d="M27.8461 4.60156C27.1047 4.72479 26.4854 5.71064 26.4854 6.94436C26.4854 7.68374 26.7325 8.2999 27.2268 8.79282C27.474 8.91605 27.7211 9.03928 28.0919 9.03928C28.8333 9.03928 29.4526 7.9302 29.4526 6.6979C29.4526 5.95851 29.2055 5.34236 28.7112 4.97267C28.4654 4.72479 28.2168 4.60156 27.8461 4.60156Z" fill="#040506"/>
<path id="path97" fill-rule="evenodd" clip-rule="evenodd" d="M28.8342 7.80508C28.9578 7.43539 29.0814 7.0657 29.0814 6.69601C28.9592 6.07986 28.8342 5.58693 28.4649 5.21724C28.3413 5.09401 28.0942 4.97078 27.847 5.09401C27.3527 5.09401 26.8584 5.95663 26.8584 6.94389C26.8584 7.31358 26.982 7.68327 27.2291 7.92973C27.2291 8.05296 27.2291 8.05296 27.2291 8.05296V7.92973C27.1056 7.8065 27.1056 7.68185 27.1056 7.43539C27.1056 6.69601 27.4763 6.07844 27.9706 6.07844C28.4649 6.07844 28.8342 6.69601 28.8342 7.43539C28.8342 7.55862 28.8342 7.68185 28.8342 7.80508Z" fill="white"/>
</g>
</g>
<defs>
<clipPath id="clip0_297_4435">
<rect width="248" height="75" fill="white"/>
</clipPath>
</defs>
</svg>
